<?xml version="1.0" encoding="iso-8859-1"?>
<!-- Uploaded to: SVG Repo, www.svgrepo.com, Generator: SVG Repo Mixer Tools -->
<svg height="800px" width="800px" version="1.1" id="Layer_1" xmlns="http://www.w3.org/2000/svg" xmlns:xlink="http://www.w3.org/1999/xlink" 
	 viewBox="0 0 511.483 511.483" xml:space="preserve">
<path style="fill:#021F02;" d="M426.276,293.509c9.345,34.89-0.712,72.424-26.248,97.959
	c-19.226,19.226-45.257,29.676-71.846,29.676c-6.732,0-13.496-0.682-20.197-2.044l-41.932,41.932v20.765c0,0.01,0,0.01,0,0.01v19.35
	c0,5.7-4.626,10.326-10.326,10.326c-5.7,0-10.326-4.626-10.326-10.326v-15.075L203.47,444.15
	c-6.681,1.363-13.434,2.034-20.156,2.034c-13.299,0-26.454-2.612-38.701-7.631c-12.236-5.018-23.553-12.432-33.166-22.045
	c-25.515-25.515-35.572-63.038-26.258-97.939c0.95-3.562,3.728-6.35,7.3-7.311c34.88-9.334,72.424,0.712,97.949,26.248
	c24.1,24.1,34.405,58.887,27.642,92.043l27.322,27.332V325.064c-6.423,3.098-14.043,4.874-22.293,4.874
	c-4.048,0-8.054-0.444-11.895-1.311c-3.48-0.795-6.206-3.5-7.001-6.98c-0.878-3.81-1.322-7.827-1.322-11.926
	c0-7.951,1.704-15.55,4.822-22.087c-29.459-16.748-49.388-48.417-49.429-84.65c0-0.041,0-0.083,0-0.124v-50.059
	c0-0.052-0.01-0.103-0.01-0.155v-0.062c0-0.052,0.01-0.103,0.01-0.155V44.248c0-5.71,4.616-10.326,10.326-10.326h15.633
	c7.063,0,14.022,0.434,20.858,1.28c13.32-13.94,28.767-25.401,46.011-34.095c2.922-1.477,6.381-1.477,9.303,0
	c17.192,8.674,32.629,20.135,45.97,34.095c6.908-0.847,13.888-1.28,20.837-1.28h15.643c5.7,0,10.326,4.616,10.326,10.326V202.86
	c0,36.295-19.939,68.015-49.439,84.784c3.118,6.526,4.822,14.136,4.822,22.076c0,4.079-0.434,8.075-1.301,11.895
	c-0.795,3.49-3.521,6.216-7.021,7.011c-3.851,0.867-7.848,1.311-11.885,1.311c-8.26,0-15.891-1.776-22.314-4.874v106.757
	l27.332-27.332c-1.363-6.681-2.024-13.434-2.024-20.156c0-26.599,10.45-52.64,29.666-71.866
	c25.515-25.515,63.038-35.572,97.939-26.258C422.528,287.159,425.316,289.936,426.276,293.509z M385.428,376.857
	c18.886-18.886,27.136-46.021,22.252-72.052c-26.041-4.863-53.167,3.387-72.042,22.262c-15.685,15.685-24.028,37.069-23.615,58.784
	l37.152-37.141c4.027-4.037,10.563-4.037,14.6,0c4.027,4.027,4.027,10.563,0,14.6l-37.162,37.162
	C348.328,400.906,369.723,392.562,385.428,376.857z M332.54,202.901c0-0.01,0-0.031,0-0.041c0-8.622-0.754-17.068-2.168-25.298
	c-0.31-0.898-0.485-1.859-0.527-2.85c-13.186-68.356-73.457-120.139-145.602-120.139h-5.307v148.204c0,0.031,0,0.062,0,0.083
	c0,42.356,34.457,76.812,76.802,76.812C298.073,279.673,332.519,245.237,332.54,202.901z M332.54,121.99V54.574h-5.318
	c-7.734,0-15.519,0.599-23.15,1.797c-8.704,1.363-17.223,3.521-25.504,6.392C300.944,77.879,319.519,98.21,332.54,121.99z
	 M289.957,311.321c0.021-0.537,0.031-1.064,0.031-1.6c0-5.297-1.156-10.367-3.211-14.466c-6.619,2.23-13.558,3.759-20.724,4.523
	v1.415c2.984,5.731,12.133,10.16,22.314,10.16C288.894,311.352,289.431,311.34,289.957,311.321z M281.686,40.127
	c-7.971-6.959-16.635-13.031-25.928-18.132c-9.324,5.122-18.008,11.193-25.99,18.163c8.963,2.509,17.626,5.741,25.917,9.634
	C264.091,45.858,272.775,42.627,281.686,40.127z M245.402,301.211v-1.446c-7.166-0.754-14.094-2.292-20.713-4.523
	c-2.055,4.11-3.211,9.18-3.211,14.477c0,0.537,0.01,1.064,0.031,1.6c0.537,0.021,1.064,0.031,1.6,0.031
	C233.269,311.352,242.418,306.932,245.402,301.211z M199.453,410.921c0.434-21.715-7.909-43.11-23.615-58.805
	c-18.886-18.896-46.021-27.146-72.052-22.262c-4.863,26.041,3.387,53.177,22.262,72.052c15.685,15.674,37.059,24.017,58.784,23.604
	L147.69,388.37c-4.037-4.037-4.037-10.573,0-14.611c4.027-4.027,10.563-4.027,14.6,0L199.453,410.921z"/>
<path style="fill:#46B430;" d="M407.68,304.805c4.884,26.031-3.366,53.167-22.252,72.052c-15.705,15.705-37.1,24.048-58.815,23.615
	l37.162-37.162c4.027-4.037,4.027-10.573,0-14.6c-4.037-4.037-10.573-4.037-14.6,0l-37.152,37.141
	c-0.413-21.715,7.93-43.099,23.615-58.784C354.513,308.192,381.639,299.942,407.68,304.805z"/>
<g>
	<path style="fill:#D23B6A;" d="M332.54,202.859c0,0.01,0,0.031,0,0.041c-0.021,42.335-34.467,76.771-76.802,76.771
		c-42.345,0-76.802-34.457-76.802-76.812c0-0.021,0-0.052,0-0.083V54.574h5.307c72.145,0,132.416,51.783,145.602,120.139
		c0.041,0.991,0.217,1.952,0.527,2.85C331.786,185.791,332.54,194.238,332.54,202.859z M266.053,262.615
		c0-5.7-4.626-10.326-10.326-10.326c-26.857,0-48.706-21.849-48.706-48.706c0-5.71-4.626-10.326-10.326-10.326
		c-5.7,0-10.326,4.616-10.326,10.326c0,38.246,31.111,69.357,69.357,69.357C261.427,272.939,266.053,268.314,266.053,262.615z"/>
	<path style="fill:#D23B6A;" d="M332.54,54.574v67.416c-13.021-23.78-31.596-44.111-53.972-59.228
		c8.281-2.871,16.8-5.029,25.504-6.392c7.631-1.198,15.416-1.797,23.15-1.797C327.222,54.574,332.54,54.574,332.54,54.574z"/>
</g>
<path style="fill:#46B430;" d="M289.988,309.72c0,0.537-0.01,1.064-0.031,1.6c-0.527,0.021-1.064,0.031-1.59,0.031
	c-10.181,0-19.33-4.43-22.314-10.16v-1.415c7.166-0.764,14.105-2.292,20.724-4.523C288.832,299.353,289.988,304.423,289.988,309.72z
	"/>
<path style="fill:#D23B6A;" d="M255.759,21.995c9.293,5.101,17.956,11.172,25.928,18.132c-8.911,2.499-17.595,5.731-26,9.665
	c-8.291-3.893-16.955-7.125-25.917-9.634C237.751,33.189,246.435,27.118,255.759,21.995z"/>
<path style="fill:#021F02;" d="M255.728,252.289c5.7,0,10.326,4.626,10.326,10.326c0,5.7-4.626,10.326-10.326,10.326
	c-38.246,0-69.357-31.111-69.357-69.357c0-5.71,4.626-10.326,10.326-10.326c5.7,0,10.326,4.616,10.326,10.326
	C207.022,230.44,228.871,252.289,255.728,252.289z"/>
<g>
	<path style="fill:#46B430;" d="M245.402,299.766v1.446c-2.984,5.72-12.133,10.14-22.293,10.14c-0.537,0-1.064-0.01-1.6-0.031
		c-0.021-0.537-0.031-1.064-0.031-1.6c0-5.297,1.156-10.367,3.211-14.477C231.308,297.473,238.236,299.011,245.402,299.766z"/>
	<path style="fill:#46B430;" d="M175.838,352.117c15.705,15.695,24.048,37.09,23.615,58.805l-37.162-37.162
		c-4.037-4.027-10.573-4.027-14.6,0c-4.037,4.037-4.037,10.573,0,14.611l37.141,37.141c-21.725,0.413-43.099-7.93-58.784-23.604
		c-18.875-18.875-27.125-46.011-22.262-72.052C129.817,324.971,156.953,333.22,175.838,352.117z"/>
</g>
</svg>